<svg xmlns="http://www.w3.org/2000/svg" xmlns:xlink="http://www.w3.org/1999/xlink" width="280" zoomAndPan="magnify" viewBox="0 0 210 67.499998" height="90" preserveAspectRatio="xMidYMid meet" version="1.0"><defs><g/><clipPath id="id1"><path d="M 0.773438 5.125 L 118.269531 5.125 L 118.269531 61.707031 L 0.773438 61.707031 Z M 0.773438 5.125 " clip-rule="nonzero"/></clipPath><clipPath id="id2"><path d="M 0.773438 18 L 115 18 L 115 61.707031 L 0.773438 61.707031 Z M 0.773438 18 " clip-rule="nonzero"/></clipPath><clipPath id="id3"><path d="M 1 5.125 L 118.269531 5.125 L 118.269531 61.707031 L 1 61.707031 Z M 1 5.125 " clip-rule="nonzero"/></clipPath><clipPath id="id4"><path d="M 8 19 L 117 19 L 117 61.707031 L 8 61.707031 Z M 8 19 " clip-rule="nonzero"/></clipPath></defs><g clip-path="url(#id1)"><path fill="rgb(74.508667%, 21.958923%, 32.159424%)" d="M 116.585938 20.636719 L 114.371094 20.804688 C 114.355469 20.75 114.332031 20.699219 114.289062 20.664062 C 114.175781 20.566406 114.003906 20.582031 113.910156 20.695312 C 113.894531 20.710938 113.851562 20.761719 113.789062 20.847656 L 104.359375 21.558594 L 98.515625 22 L 97.085938 22.105469 C 96.351562 22.160156 95.789062 22.722656 95.789062 23.398438 L 95.789062 25.210938 L 95.660156 25.210938 C 95.660156 25.070312 95.605469 24.933594 95.5 24.828125 C 95.289062 24.617188 94.949219 24.621094 94.738281 24.832031 C 94.722656 24.847656 94.605469 24.972656 94.445312 25.210938 L 82.984375 25.210938 C 82.429688 25.210938 81.957031 25.550781 81.761719 26.03125 L 80.886719 26.03125 C 80.878906 25.917969 80.835938 25.804688 80.753906 25.710938 C 80.554688 25.492188 80.214844 25.472656 79.992188 25.671875 C 79.976562 25.6875 79.851562 25.804688 79.683594 26.03125 L 72.992188 26.03125 L 72.992188 25.367188 C 74.667969 24.929688 75.902344 23.414062 75.902344 21.605469 L 75.902344 21.5 C 75.902344 20.023438 74.703125 18.824219 73.222656 18.824219 L 58.878906 18.824219 C 57.164062 18.824219 55.777344 20.207031 55.777344 21.917969 L 55.777344 38.269531 L 47.503906 54.902344 C 46.9375 54.609375 46.351562 54.304688 45.75 53.996094 L 46.425781 50.0625 C 47.273438 50.164062 48.023438 49.957031 48.570312 49.28125 C 50.183594 47.296875 48.207031 45.066406 46.84375 43.488281 C 48.246094 43.425781 51.742188 43.152344 52.078125 42.886719 C 52.460938 42.582031 54.847656 33.875 55.085938 28.035156 C 55.109375 27.449219 55.113281 26.871094 55.105469 26.304688 C 55.171875 26.261719 55.222656 26.195312 55.234375 26.105469 C 55.246094 26 55.1875 25.878906 55.09375 25.820312 C 55.074219 25.175781 55.035156 24.550781 54.984375 23.949219 C 55.003906 23.878906 55 23.808594 54.964844 23.738281 C 54.886719 22.894531 54.785156 22.101562 54.671875 21.378906 C 54.773438 21.328125 54.875 21.28125 54.972656 21.230469 C 55.113281 21.164062 55.191406 21 55.128906 20.851562 C 55.070312 20.714844 54.886719 20.628906 54.746094 20.699219 C 54.691406 20.726562 54.632812 20.753906 54.574219 20.78125 C 54.40625 19.792969 54.226562 18.960938 54.074219 18.339844 C 54.507812 18.171875 54.929688 17.972656 55.328125 17.726562 C 60.941406 14.25 57.460938 5.136719 51.144531 5.261719 C 48.515625 5.3125 45.929688 6.578125 43.609375 7.714844 C 40.925781 9.027344 38.949219 9.980469 35.855469 10.023438 C 32.953125 10.0625 29.871094 9.847656 27.34375 11.269531 C 23.976562 13.15625 22.640625 17.582031 23.464844 21.351562 C 23.464844 21.359375 23.46875 21.363281 23.46875 21.371094 C 22.585938 20.828125 21.667969 20.347656 20.703125 19.964844 C 18.121094 18.949219 15.113281 18.707031 12.609375 19.90625 C 10.464844 20.9375 8.835938 23.28125 8.707031 25.726562 C 8.703125 25.820312 8.703125 25.910156 8.703125 26.003906 C 5.671875 28.746094 2.691406 32.691406 2.144531 37.667969 C 2.042969 38.5625 2.03125 39.378906 2.082031 40.132812 C 1.902344 40.097656 1.691406 40.214844 1.734375 40.445312 C 2.386719 43.953125 4.613281 47.289062 8.152344 48.367188 C 8.996094 48.625 9.871094 48.753906 10.746094 48.777344 C 9.980469 51.28125 5.214844 66.648438 0.914062 75.558594 C -3.773438 85.273438 -8.152344 101.003906 7.328125 107.421875 C 22.816406 113.839844 30.625 106.832031 38.777344 106.300781 C 46.9375 105.761719 50.496094 106.757812 50.496094 106.757812 L 46.992188 82.996094 C 53.0625 84.214844 58.109375 85.226562 58.242188 85.253906 C 58.265625 85.261719 58.285156 85.265625 58.308594 85.265625 C 58.507812 85.265625 58.8125 84.925781 61.355469 81.4375 C 62.804688 79.453125 64.792969 76.683594 67.277344 73.203125 C 71.5 67.273438 75.738281 61.261719 75.78125 61.203125 C 75.855469 61.097656 75.84375 60.960938 75.761719 60.867188 L 74.429688 59.394531 L 77.972656 53.203125 L 77.601562 52.988281 C 77.667969 52.953125 77.738281 52.917969 77.804688 52.882812 C 77.839844 52.863281 77.871094 52.84375 77.90625 52.828125 C 78.398438 52.714844 78.875 52.535156 79.316406 52.285156 C 79.378906 52.25 79.429688 52.199219 79.460938 52.136719 C 79.515625 52.117188 79.570312 52.101562 79.621094 52.078125 C 80.992188 51.542969 81.882812 50.308594 82.699219 49.148438 C 82.714844 49.121094 82.722656 49.097656 82.730469 49.070312 C 83.976562 47.953125 84.324219 46.191406 85.347656 44.902344 C 85.421875 44.8125 85.417969 44.714844 85.382812 44.632812 C 86.144531 44.316406 86.910156 44.003906 87.644531 43.636719 C 87.984375 43.464844 88.308594 43.222656 88.382812 42.828125 C 88.445312 42.5 88.3125 42.171875 88.085938 41.933594 L 95.789062 41.933594 L 95.789062 43.742188 C 95.789062 44.417969 96.351562 44.984375 97.085938 45.039062 L 98.515625 45.144531 L 104.359375 45.585938 L 113.792969 46.292969 C 113.851562 46.375 113.890625 46.425781 113.902344 46.441406 C 113.953125 46.507812 114.035156 46.542969 114.113281 46.542969 C 114.171875 46.542969 114.230469 46.523438 114.277344 46.488281 C 114.328125 46.449219 114.355469 46.394531 114.371094 46.335938 L 116.585938 46.503906 C 117.410156 46.566406 118.113281 45.96875 118.113281 45.210938 L 118.113281 21.929688 C 118.113281 21.171875 117.410156 20.574219 116.585938 20.636719 Z M 66.570312 46.574219 L 63.675781 50.976562 L 63.507812 50.851562 L 63.765625 44.890625 L 66.3125 44.890625 C 66.3125 45.039062 66.433594 45.160156 66.582031 45.160156 C 66.730469 45.160156 66.851562 45.039062 66.851562 44.890625 L 68.554688 44.890625 C 68.523438 44.976562 68.492188 45.066406 68.460938 45.152344 C 68.222656 45.800781 67.8125 46.453125 67.507812 47.117188 Z M 81.96875 40.917969 C 82.03125 41.039062 82.09375 41.15625 82.15625 41.269531 C 81.75 41.296875 81.339844 41.324219 80.933594 41.371094 C 80.835938 41.378906 80.769531 41.429688 80.734375 41.496094 C 80.328125 41.449219 79.929688 41.386719 79.53125 41.296875 C 79.125 41.203125 78.71875 41.078125 78.324219 40.917969 Z M 81.96875 40.917969 " fill-opacity="1" fill-rule="nonzero"/></g><path fill="rgb(99.609375%, 78.039551%, 50.979614%)" d="M 54.890625 24.101562 C 54.9375 24.058594 54.964844 24.003906 54.984375 23.949219 C 55.035156 24.550781 55.074219 25.175781 55.09375 25.820312 C 55.058594 25.796875 55.019531 25.785156 54.980469 25.785156 C 54.246094 25.765625 53.515625 25.742188 52.785156 25.722656 C 53.410156 25.242188 54.039062 24.757812 54.664062 24.273438 C 54.703125 24.265625 54.734375 24.25 54.765625 24.222656 C 54.808594 24.179688 54.847656 24.140625 54.890625 24.101562 Z M 53.75 17.109375 C 53.75 17.109375 53.886719 17.558594 54.074219 18.339844 C 54.226562 18.960938 54.40625 19.792969 54.574219 20.78125 C 53.742188 21.191406 52.910156 21.597656 52.078125 22.003906 C 51.9375 22.074219 51.859375 22.234375 51.925781 22.382812 C 51.984375 22.523438 52.164062 22.605469 52.304688 22.539062 C 53.09375 22.152344 53.882812 21.765625 54.671875 21.378906 C 54.785156 22.101562 54.886719 22.894531 54.964844 23.738281 C 54.957031 23.722656 54.953125 23.707031 54.941406 23.695312 C 54.847656 23.570312 54.660156 23.546875 54.535156 23.640625 C 53.769531 24.234375 53.003906 24.824219 52.234375 25.414062 C 52.222656 25.425781 52.21875 25.4375 52.207031 25.449219 L 51.648438 22.511719 C 51.578125 22.144531 51.003906 22.226562 51.074219 22.59375 C 51.425781 24.4375 51.78125 26.277344 52.125 28.121094 C 52.269531 28.898438 52.429688 29.824219 51.839844 30.460938 C 51.382812 30.953125 50.644531 31.148438 50.011719 30.917969 C 49.664062 30.792969 49.445312 31.328125 49.796875 31.457031 C 50.5 31.710938 51.273438 31.597656 51.890625 31.175781 C 52.59375 30.695312 52.867188 29.90625 52.835938 29.082031 C 52.800781 28.144531 52.558594 27.191406 52.367188 26.265625 C 52.394531 26.277344 52.425781 26.289062 52.457031 26.292969 C 53.277344 26.3125 54.09375 26.335938 54.914062 26.359375 C 54.984375 26.359375 55.050781 26.339844 55.105469 26.304688 C 55.113281 26.871094 55.109375 27.449219 55.085938 28.035156 C 54.847656 33.875 52.460938 42.582031 52.078125 42.886719 C 51.742188 43.152344 48.246094 43.421875 46.847656 43.488281 C 46.742188 43.363281 46.640625 43.246094 46.542969 43.132812 C 44.640625 40.871094 42.671875 38.667969 40.632812 36.53125 C 38.125 33.894531 35.519531 31.351562 32.820312 28.914062 C 32.792969 28.882812 32.777344 28.867188 32.777344 28.867188 C 32.777344 28.867188 37.113281 27.042969 38.328125 24.230469 C 39.542969 21.421875 39.152344 18.65625 39.152344 18.65625 C 44.199219 18.785156 49.34375 19.28125 53.75 17.109375 Z M 48.769531 36.75 C 46.972656 36.160156 45.328125 35.210938 43.917969 33.953125 C 43.640625 33.707031 43.289062 34.167969 43.566406 34.414062 C 45.011719 35.699219 46.714844 36.679688 48.550781 37.285156 C 48.902344 37.402344 49.125 36.867188 48.769531 36.75 Z M 46.976562 27.253906 C 47.511719 27.253906 47.945312 26.820312 47.945312 26.289062 C 47.945312 25.753906 47.511719 25.320312 46.976562 25.320312 C 46.441406 25.320312 46.007812 25.753906 46.007812 26.289062 C 46.007812 26.820312 46.441406 27.253906 46.976562 27.253906 Z M 49.390625 22.140625 C 48.457031 21.996094 47.523438 21.855469 46.59375 21.714844 C 46.136719 21.648438 45.679688 21.578125 45.222656 21.507812 C 44.796875 21.445312 44.363281 21.398438 43.9375 21.488281 C 43.574219 21.5625 43.652344 22.132812 44.019531 22.058594 C 44.453125 21.972656 44.878906 22.042969 45.3125 22.105469 C 45.75 22.171875 46.191406 22.242188 46.632812 22.304688 C 47.527344 22.441406 48.425781 22.578125 49.324219 22.714844 C 49.691406 22.769531 49.757812 22.195312 49.390625 22.140625 Z M 49.390625 22.140625 " fill-opacity="1" fill-rule="nonzero"/><g clip-path="url(#id2)"><path fill="rgb(74.508667%, 21.958923%, 32.159424%)" d="M 114.371094 46.339844 C 114.359375 46.394531 114.328125 46.449219 114.28125 46.488281 C 114.230469 46.527344 114.171875 46.542969 114.113281 46.542969 C 114.035156 46.542969 113.957031 46.507812 113.902344 46.441406 C 113.890625 46.425781 113.851562 46.375 113.796875 46.296875 C 113.214844 45.476562 110.570312 41.308594 110.570312 33.417969 C 110.570312 25.582031 113.183594 21.65625 113.789062 20.847656 C 113.851562 20.761719 113.894531 20.710938 113.910156 20.695312 C 114.003906 20.582031 114.175781 20.566406 114.289062 20.664062 C 114.332031 20.699219 114.355469 20.75 114.371094 20.804688 C 114.390625 20.886719 114.378906 20.972656 114.320312 21.042969 C 114.289062 21.078125 111.109375 24.960938 111.109375 33.417969 C 111.109375 41.90625 114.292969 46.070312 114.324219 46.109375 C 114.378906 46.175781 114.390625 46.261719 114.371094 46.339844 Z M 58.621094 24.394531 L 59.6875 24.394531 L 59.6875 18.84375 L 58.621094 18.84375 Z M 35.117188 87.171875 C 35.199219 87.113281 35.28125 87.113281 35.355469 87.136719 C 34.644531 85.898438 33.929688 84.660156 33.21875 83.421875 C 28.773438 86.421875 24.328125 89.421875 19.882812 92.425781 C 19.847656 92.445312 19.816406 92.457031 19.785156 92.464844 C 20.335938 93.878906 20.890625 95.292969 21.445312 96.707031 Z M 53.574219 57.808594 C 55.015625 53.664062 56.460938 49.515625 57.902344 45.367188 C 57.996094 45.097656 58.425781 45.261719 58.332031 45.53125 C 56.886719 49.679688 55.445312 53.828125 54.003906 57.976562 C 53.972656 58.058594 53.914062 58.09375 53.851562 58.105469 C 53.859375 58.109375 53.875 58.117188 53.882812 58.121094 C 54.625 57.589844 59.335938 53.039062 62.238281 50.1875 C 62.335938 50.09375 62.484375 50.082031 62.589844 50.164062 L 63.507812 50.851562 L 63.765625 44.890625 L 59.773438 44.890625 C 57.566406 44.890625 55.78125 43.105469 55.78125 40.898438 L 55.78125 40.632812 L 66.3125 40.632812 L 66.3125 44.890625 C 66.3125 45.039062 66.433594 45.160156 66.582031 45.160156 C 66.730469 45.160156 66.851562 45.039062 66.851562 44.890625 L 66.851562 40.367188 C 66.851562 40.21875 66.730469 40.097656 66.582031 40.097656 L 55.78125 40.097656 L 55.78125 38.269531 L 47.503906 54.902344 C 50.355469 56.371094 52.691406 57.5625 53.589844 57.984375 C 53.558594 57.9375 53.550781 57.878906 53.574219 57.808594 Z M 12.425781 26.382812 C 12.878906 27.160156 13.886719 27.664062 14.753906 27.25 C 14.90625 27.175781 15.21875 26.882812 15.390625 26.921875 C 15.582031 26.964844 15.542969 27.320312 15.566406 27.46875 C 15.636719 27.882812 15.867188 28.207031 16.234375 28.414062 C 17.160156 28.929688 18.117188 28.390625 18.902344 27.875 C 19.210938 27.671875 18.855469 27.214844 18.546875 27.417969 C 18.152344 27.675781 17.738281 27.953125 17.265625 28.03125 C 16.90625 28.089844 16.449219 27.992188 16.238281 27.664062 C 16.046875 27.367188 16.164062 26.972656 15.96875 26.664062 C 15.78125 26.367188 15.433594 26.285156 15.109375 26.402344 C 14.726562 26.539062 14.457031 26.839844 14.019531 26.8125 C 13.589844 26.789062 13.210938 26.53125 12.976562 26.175781 C 12.402344 25.308594 12.640625 24.191406 12.832031 23.246094 C 12.90625 22.878906 12.332031 22.816406 12.257812 23.179688 C 12.042969 24.238281 11.851562 25.394531 12.425781 26.382812 Z M 38.710938 39.757812 C 38.847656 39.679688 38.929688 39.539062 38.867188 39.378906 C 38.8125 39.25 38.621094 39.148438 38.484375 39.226562 C 37.984375 39.519531 37.398438 39.839844 36.796875 39.695312 C 36.355469 39.585938 35.957031 39.070312 36.304688 38.652344 C 36.503906 38.40625 36.214844 38.132812 35.960938 38.210938 C 35.367188 38.386719 34.679688 38.148438 34.320312 37.652344 C 33.9375 37.128906 33.972656 36.378906 34.351562 35.867188 C 34.574219 35.570312 34.113281 35.214844 33.890625 35.515625 C 33.355469 36.238281 33.324219 37.273438 33.859375 38.003906 C 34.269531 38.5625 34.9375 38.847656 35.609375 38.828125 C 35.539062 39.34375 35.847656 39.890625 36.332031 40.132812 C 37.128906 40.539062 38.007812 40.171875 38.710938 39.757812 Z M 88.085938 41.933594 C 88.3125 42.171875 88.445312 42.5 88.382812 42.828125 C 88.308594 43.222656 87.984375 43.464844 87.644531 43.636719 C 86.910156 44.003906 86.144531 44.316406 85.386719 44.632812 C 85.421875 44.714844 85.421875 44.8125 85.347656 44.902344 C 84.324219 46.191406 83.976562 47.953125 82.730469 49.070312 C 82.722656 49.097656 82.714844 49.121094 82.699219 49.148438 C 81.882812 50.308594 80.992188 51.542969 79.621094 52.082031 C 79.570312 52.101562 79.515625 52.117188 79.460938 52.136719 C 79.433594 52.199219 79.382812 52.25 79.316406 52.285156 C 78.875 52.535156 78.398438 52.714844 77.90625 52.828125 C 77.875 52.835938 77.84375 52.84375 77.808594 52.851562 C 77.695312 52.875 77.578125 52.890625 77.460938 52.90625 L 77.601562 52.988281 L 77.972656 53.203125 L 74.429688 59.394531 L 73.179688 58.011719 C 73.203125 57.992188 73.226562 57.96875 73.246094 57.9375 C 74.183594 56.457031 75.117188 54.972656 76.054688 53.492188 C 76.082031 53.449219 76.097656 53.40625 76.101562 53.363281 C 76.035156 53.300781 76.003906 53.207031 76.015625 53.121094 C 75.902344 53 75.707031 52.960938 75.59375 53.140625 C 74.660156 54.621094 73.722656 56.101562 72.789062 57.582031 L 70.890625 55.484375 C 71.023438 55.566406 71.183594 55.546875 71.285156 55.425781 C 71.796875 54.8125 72.3125 54.199219 72.824219 53.589844 C 72.921875 53.472656 72.894531 53.269531 72.769531 53.183594 C 72.636719 53.089844 72.46875 53.113281 72.363281 53.238281 C 71.851562 53.847656 71.339844 54.460938 70.824219 55.074219 C 70.753906 55.15625 70.75 55.289062 70.800781 55.386719 L 70.605469 55.167969 C 70.503906 55.058594 70.335938 55.050781 70.226562 55.148438 C 70.113281 55.25 70.105469 55.417969 70.207031 55.527344 L 75.21875 61.070312 C 68.820312 70.144531 59.28125 83.554688 58.222656 84.703125 C 56.011719 84.261719 26.316406 78.296875 26.003906 78.234375 C 25.859375 78.207031 25.71875 78.300781 25.6875 78.445312 C 25.660156 78.59375 25.753906 78.734375 25.898438 78.761719 C 26.09375 78.800781 37.734375 81.136719 46.992188 82.996094 L 50.496094 106.757812 C 50.496094 106.757812 46.9375 105.761719 38.777344 106.300781 C 30.625 106.835938 22.816406 113.839844 7.328125 107.421875 C -8.152344 101.003906 -3.773438 85.273438 0.914062 75.558594 C 5.214844 66.648438 9.980469 51.28125 10.746094 48.777344 C 11.855469 48.8125 12.96875 48.679688 14.046875 48.40625 C 16.089844 47.890625 17.914062 46.914062 19.722656 45.863281 C 21.476562 44.847656 23.960938 43.707031 25.753906 45.300781 C 26.03125 45.550781 26.382812 45.089844 26.105469 44.84375 C 24.753906 43.636719 22.777344 43.796875 21.210938 44.449219 C 20.257812 44.847656 19.386719 45.40625 18.496094 45.917969 C 17.636719 46.402344 16.753906 46.847656 15.839844 47.214844 C 13.917969 47.984375 11.832031 48.402344 9.765625 48.128906 C 7.894531 47.878906 6.171875 47.035156 4.882812 45.652344 C 3.523438 44.191406 2.671875 42.3125 2.308594 40.363281 C 2.28125 40.226562 2.1875 40.152344 2.078125 40.132812 C 2.027344 39.378906 2.042969 38.5625 2.144531 37.667969 C 2.691406 32.691406 5.671875 28.746094 8.703125 26 C 8.757812 28.460938 11.304688 30.605469 13.382812 31.515625 C 15.476562 32.429688 17.78125 32.710938 20.027344 33.132812 C 22.269531 33.554688 24.566406 34.167969 26.339844 35.605469 C 28.019531 36.96875 29.074219 38.941406 30.582031 40.488281 C 31.410156 41.339844 32.535156 42.351562 33.652344 42.808594 C 35.164062 43.421875 36.410156 43.558594 37.800781 44.574219 C 39.296875 45.664062 43.480469 49.71875 46.425781 50.0625 L 45.75 53.996094 C 42.738281 52.4375 39.398438 50.695312 36.644531 49.253906 C 36.511719 49.183594 36.351562 49.238281 36.28125 49.367188 C 36.210938 49.5 36.261719 49.660156 36.394531 49.730469 C 47.742188 55.667969 53.636719 58.679688 53.90625 58.679688 C 54.039062 58.679688 54.351562 58.679688 62.453125 50.730469 L 65.265625 52.839844 C 65.386719 52.929688 65.554688 52.90625 65.644531 52.785156 C 65.730469 52.667969 65.707031 52.5 65.589844 52.410156 L 65.367188 52.242188 C 65.445312 52.246094 65.527344 52.214844 65.589844 52.125 C 66.269531 51.109375 66.953125 50.09375 67.636719 49.078125 C 67.84375 48.769531 67.382812 48.417969 67.175781 48.726562 C 66.492188 49.742188 65.8125 50.757812 65.128906 51.773438 C 65.066406 51.863281 65.066406 51.960938 65.097656 52.042969 L 63.675781 50.976562 L 66.570312 46.574219 L 67.507812 47.117188 L 76.726562 52.480469 C 76.960938 52.402344 77.21875 52.363281 77.46875 52.324219 C 77.550781 52.3125 77.628906 52.292969 77.707031 52.277344 C 77.683594 52.273438 77.660156 52.269531 77.640625 52.261719 C 77.304688 52.179688 77.015625 52.03125 76.714844 51.863281 C 76.386719 51.679688 76.003906 51.453125 75.613281 51.585938 C 75.261719 51.707031 75.035156 51.171875 75.386719 51.054688 C 76.070312 50.820312 76.609375 51.164062 77.199219 51.476562 C 77.824219 51.804688 78.515625 51.835938 79.183594 51.625 C 80.175781 51.308594 80.90625 50.578125 81.53125 49.769531 C 80.332031 50.164062 78.960938 49.90625 77.738281 49.621094 C 77.378906 49.535156 77.445312 48.960938 77.804688 49.042969 C 79.320312 49.398438 81.117188 49.773438 82.386719 48.609375 C 83.445312 47.636719 83.820312 46.160156 84.589844 44.96875 C 84.542969 44.992188 84.496094 45.011719 84.449219 45.03125 L 81.179688 46.453125 C 80.835938 46.601562 80.613281 46.066406 80.953125 45.917969 C 82.128906 45.40625 83.304688 44.898438 84.480469 44.386719 C 85.054688 44.136719 85.632812 43.882812 86.210938 43.632812 C 86.507812 43.503906 86.808594 43.375 87.105469 43.242188 C 87.320312 43.152344 87.582031 43.066406 87.730469 42.882812 C 88.199219 42.304688 87.089844 42.046875 86.742188 42 C 86.101562 41.914062 85.457031 41.859375 84.8125 41.828125 C 83.546875 41.765625 82.277344 41.808594 81.019531 41.941406 C 80.746094 41.972656 80.632812 41.675781 80.734375 41.496094 C 80.769531 41.429688 80.835938 41.378906 80.933594 41.371094 C 81.339844 41.328125 81.75 41.296875 82.15625 41.269531 C 83.0625 41.21875 83.972656 41.207031 84.878906 41.253906 C 85.476562 41.28125 86.074219 41.335938 86.667969 41.410156 C 87.105469 41.460938 87.574219 41.523438 87.933594 41.792969 C 87.988281 41.835938 88.039062 41.882812 88.085938 41.933594 Z M 19.550781 92 C 19.425781 92.085938 19.421875 92.214844 19.480469 92.316406 C 19.335938 92.355469 19.21875 92.496094 19.289062 92.671875 C 19.894531 94.21875 20.5 95.765625 21.105469 97.308594 C 21.210938 97.585938 21.589844 97.46875 21.617188 97.230469 C 21.636719 97.222656 21.65625 97.214844 21.675781 97.203125 C 26.261719 94.003906 30.84375 90.808594 35.429688 87.609375 C 35.851562 89.984375 35.539062 92.453125 34.535156 94.648438 C 33.554688 96.777344 31.914062 98.554688 29.90625 99.761719 C 28.785156 100.433594 27.546875 100.910156 26.269531 101.175781 C 25.929688 101.246094 26.003906 101.777344 26.34375 101.707031 C 28.710938 101.21875 30.898438 100.035156 32.605469 98.332031 C 34.390625 96.546875 35.558594 94.234375 35.984375 91.753906 C 36.226562 90.328125 36.210938 88.859375 35.945312 87.441406 C 36.019531 87.375 36.054688 87.277344 35.988281 87.164062 C 35.226562 85.839844 34.460938 84.515625 33.699219 83.1875 C 33.65625 83.113281 33.59375 83.070312 33.527344 83.054688 C 33.496094 82.882812 33.289062 82.730469 33.09375 82.859375 Z M 68.355469 55.960938 C 68.355469 55.8125 68.234375 55.691406 68.085938 55.691406 C 67.96875 55.691406 67.867188 55.769531 67.832031 55.875 C 67.390625 56.570312 59.28125 64.542969 53.8125 69.851562 L 22.1875 56.109375 C 23.660156 54.335938 25.433594 52.796875 27.453125 51.582031 C 29.050781 50.621094 30.785156 49.882812 32.582031 49.378906 C 32.9375 49.28125 32.707031 48.746094 32.355469 48.847656 C 25.652344 50.730469 20.191406 55.886719 17.941406 62.464844 C 17.285156 64.375 16.902344 66.375 16.808594 68.394531 C 16.792969 68.765625 17.367188 68.835938 17.386719 68.460938 C 17.589844 64.082031 19.191406 59.910156 21.847656 56.535156 C 21.867188 56.546875 21.882812 56.566406 21.90625 56.574219 L 53.765625 70.417969 C 53.796875 70.433594 53.835938 70.4375 53.871094 70.4375 C 53.941406 70.4375 54.007812 70.414062 54.058594 70.363281 C 68.355469 56.484375 68.355469 56.101562 68.355469 55.960938 Z M 76.671875 43.332031 C 76.851562 45.648438 76.347656 47.96875 75.253906 50.019531 C 75.078125 50.347656 75.617188 50.5625 75.789062 50.234375 C 76.933594 48.097656 77.429688 45.664062 77.242188 43.246094 C 77.214844 42.875 76.640625 42.960938 76.671875 43.332031 Z M 98.515625 37.949219 L 97.609375 37.949219 L 97.609375 40.933594 L 98.515625 41.082031 L 103.238281 41.859375 L 106.953125 42.46875 L 106.953125 37.949219 Z M 98.515625 37.949219 " fill-opacity="1" fill-rule="nonzero"/></g><path fill="rgb(34.118652%, 34.509277%, 32.548523%)" d="M 103.238281 41.859375 C 103.539062 43.109375 103.910156 44.351562 104.359375 45.585938 L 98.515625 45.144531 L 98.515625 41.082031 Z M 98.515625 37.949219 L 102.53125 37.949219 C 101.882812 32.613281 102.503906 27.148438 104.359375 21.558594 L 98.515625 22 Z M 70.214844 30.667969 L 70.214844 33.808594 C 70.214844 34.785156 69.71875 35.648438 68.964844 36.160156 C 68.648438 36.375 68.28125 36.527344 67.890625 36.601562 C 67.71875 36.632812 67.546875 36.648438 67.367188 36.648438 L 57.023438 36.648438 L 57.023438 27.859375 C 57.023438 27.839844 57.039062 27.824219 57.054688 27.824219 L 67.367188 27.824219 C 67.570312 27.824219 67.769531 27.847656 67.960938 27.890625 C 68.335938 27.96875 68.683594 28.121094 68.988281 28.332031 C 69.726562 28.847656 70.214844 29.699219 70.214844 30.667969 Z M 60.96875 29.277344 L 58.40625 29.277344 L 58.40625 35.199219 L 60.96875 35.199219 Z M 60.96875 29.277344 " fill-opacity="1" fill-rule="nonzero"/><g clip-path="url(#id3)"><path fill="rgb(21.958923%, 22.349548%, 21.179199%)" d="M 66.3125 44.890625 L 59.773438 44.890625 C 57.566406 44.890625 55.777344 43.105469 55.777344 40.898438 L 55.777344 40.632812 L 66.3125 40.632812 Z M 118.113281 21.929688 L 118.113281 45.210938 C 118.113281 45.96875 117.410156 46.570312 116.585938 46.503906 L 114.371094 46.339844 C 114.390625 46.261719 114.378906 46.175781 114.324219 46.109375 C 114.292969 46.070312 111.109375 41.90625 111.109375 33.417969 C 111.109375 24.957031 114.289062 21.078125 114.320312 21.039062 C 114.378906 20.972656 114.390625 20.882812 114.371094 20.804688 L 116.585938 20.636719 C 117.410156 20.574219 118.113281 21.171875 118.113281 21.929688 Z M 115.835938 23.652344 C 114.253906 28.289062 113.757812 33.273438 114.398438 38.132812 C 114.582031 39.53125 114.863281 40.914062 115.234375 42.273438 C 115.332031 42.628906 115.90625 42.546875 115.808594 42.1875 C 114.539062 37.53125 114.363281 32.609375 115.296875 27.871094 C 115.5625 26.515625 115.925781 25.179688 116.371094 23.867188 C 116.492188 23.515625 115.953125 23.296875 115.835938 23.652344 Z M 113.789062 20.847656 L 104.359375 21.558594 C 102.503906 27.148438 101.882812 32.613281 102.53125 37.949219 L 106.953125 37.949219 L 106.953125 42.46875 L 103.238281 41.859375 C 103.539062 43.109375 103.910156 44.351562 104.359375 45.585938 L 113.792969 46.296875 C 113.214844 45.476562 110.570312 41.308594 110.570312 33.417969 C 110.570312 25.582031 113.183594 21.652344 113.789062 20.847656 Z M 98.515625 45.144531 L 97.085938 45.039062 C 96.351562 44.984375 95.789062 44.417969 95.789062 43.746094 L 95.789062 41.933594 L 88.085938 41.933594 C 88.039062 41.882812 87.988281 41.835938 87.933594 41.792969 C 87.574219 41.523438 87.105469 41.460938 86.667969 41.40625 C 86.074219 41.335938 85.476562 41.28125 84.878906 41.253906 C 83.96875 41.207031 83.0625 41.214844 82.15625 41.269531 C 82.09375 41.15625 82.03125 41.039062 81.96875 40.921875 L 78.324219 40.921875 C 76.734375 40.289062 75.335938 39.144531 74.789062 37.550781 C 74.476562 36.636719 74.304688 35.449219 73.386719 35.152344 C 72.804688 34.96875 72.160156 35.269531 71.765625 35.734375 C 71.371094 36.195312 71.175781 36.789062 70.988281 37.367188 C 70.175781 39.867188 69.449219 42.417969 68.554688 44.890625 L 66.851562 44.890625 L 66.851562 40.367188 C 66.851562 40.21875 66.730469 40.097656 66.582031 40.097656 L 55.777344 40.097656 L 55.777344 21.917969 C 55.777344 20.207031 57.167969 18.824219 58.878906 18.824219 L 73.222656 18.824219 C 74.703125 18.824219 75.902344 20.019531 75.902344 21.5 L 75.902344 21.605469 C 75.902344 23.414062 74.667969 24.929688 72.992188 25.367188 L 72.992188 26.03125 L 79.683594 26.03125 C 79.296875 26.550781 78.699219 27.65625 78.699219 29.460938 L 78.699219 31.042969 L 72 31.042969 C 71.851562 31.042969 71.730469 31.164062 71.730469 31.3125 C 71.730469 31.460938 71.851562 31.582031 72 31.582031 L 78.699219 31.582031 L 78.699219 33.183594 L 70.835938 33.183594 C 70.542969 33.183594 70.300781 33.425781 70.300781 33.722656 C 70.300781 34.019531 70.542969 34.257812 70.835938 34.257812 L 78.699219 34.257812 L 78.699219 40.035156 C 78.699219 40.332031 78.9375 40.570312 79.234375 40.570312 C 79.53125 40.570312 79.773438 40.332031 79.773438 40.035156 L 79.773438 29.460938 C 79.773438 27.386719 80.671875 26.507812 80.714844 26.464844 C 80.84375 26.351562 80.898438 26.191406 80.886719 26.03125 L 81.761719 26.03125 C 81.957031 25.550781 82.429688 25.210938 82.984375 25.210938 L 94.449219 25.210938 C 94.070312 25.777344 93.46875 27 93.46875 29.015625 L 93.46875 31.042969 L 87.355469 31.042969 C 87.207031 31.042969 87.085938 31.164062 87.085938 31.3125 C 87.085938 31.460938 87.207031 31.582031 87.355469 31.582031 L 93.46875 31.582031 L 93.46875 33.3125 L 86.488281 33.3125 C 86.191406 33.3125 85.953125 33.550781 85.953125 33.847656 C 85.953125 34.144531 86.191406 34.386719 86.488281 34.386719 L 93.46875 34.386719 L 93.46875 40.894531 C 93.46875 41.191406 93.707031 41.433594 94.003906 41.433594 C 94.300781 41.433594 94.542969 41.191406 94.542969 40.894531 L 94.542969 29.015625 C 94.542969 26.644531 95.484375 25.609375 95.507812 25.582031 C 95.609375 25.480469 95.660156 25.34375 95.660156 25.210938 L 95.789062 25.210938 L 95.789062 23.402344 C 95.789062 22.722656 96.351562 22.160156 97.085938 22.105469 L 98.515625 22 L 98.515625 37.949219 L 97.609375 37.949219 L 97.609375 40.933594 L 98.515625 41.082031 Z M 63.71875 21.21875 L 63.71875 23 L 65.023438 23 L 65.023438 21.21875 Z M 58.621094 18.84375 L 58.621094 24.394531 L 59.6875 24.394531 L 59.6875 18.84375 Z M 70.214844 30.667969 C 70.214844 29.699219 69.726562 28.847656 68.988281 28.332031 C 69.113281 27.054688 69.820312 26.496094 69.863281 26.464844 C 70.101562 26.292969 70.15625 25.957031 69.984375 25.71875 C 69.808594 25.476562 69.472656 25.421875 69.234375 25.59375 C 69.183594 25.628906 68.230469 26.332031 67.960938 27.890625 C 67.769531 27.847656 67.570312 27.824219 67.367188 27.824219 L 57.054688 27.824219 C 57.039062 27.824219 57.023438 27.839844 57.023438 27.859375 L 57.023438 36.652344 L 67.367188 36.652344 C 67.546875 36.652344 67.71875 36.632812 67.890625 36.601562 L 67.890625 37.140625 C 67.890625 37.4375 68.132812 37.679688 68.425781 37.679688 C 68.722656 37.679688 68.964844 37.4375 68.964844 37.140625 L 68.964844 36.160156 C 69.71875 35.648438 70.214844 34.785156 70.214844 33.808594 Z M 32.820312 28.914062 C 32.792969 28.882812 32.777344 28.867188 32.777344 28.867188 C 32.777344 28.867188 37.113281 27.042969 38.328125 24.230469 C 39.542969 21.421875 39.152344 18.65625 39.152344 18.65625 C 44.199219 18.785156 49.34375 19.28125 53.75 17.109375 C 53.75 17.109375 53.886719 17.558594 54.074219 18.339844 C 54.507812 18.167969 54.929688 17.972656 55.328125 17.726562 C 60.941406 14.246094 57.460938 5.136719 51.144531 5.261719 C 48.515625 5.3125 45.929688 6.578125 43.609375 7.714844 C 40.925781 9.027344 38.949219 9.980469 35.855469 10.023438 C 32.953125 10.0625 29.871094 9.847656 27.34375 11.265625 C 23.976562 13.15625 22.640625 17.582031 23.464844 21.351562 C 23.464844 21.359375 23.46875 21.363281 23.46875 21.371094 C 24.945312 22.277344 26.320312 23.363281 27.660156 24.464844 C 29.414062 25.90625 31.132812 27.390625 32.820312 28.914062 Z M 14.046875 48.40625 C 16.089844 47.890625 17.914062 46.914062 19.722656 45.863281 C 21.476562 44.847656 23.964844 43.707031 25.753906 45.300781 C 26.03125 45.550781 26.382812 45.089844 26.105469 44.84375 C 24.753906 43.636719 22.777344 43.796875 21.210938 44.449219 C 20.257812 44.847656 19.386719 45.40625 18.496094 45.917969 C 17.636719 46.402344 16.753906 46.847656 15.839844 47.214844 C 13.917969 47.984375 11.835938 48.402344 9.765625 48.128906 C 7.894531 47.878906 6.171875 47.035156 4.882812 45.652344 C 3.523438 44.191406 2.671875 42.3125 2.308594 40.363281 C 2.28125 40.226562 2.1875 40.152344 2.082031 40.132812 C 1.902344 40.097656 1.691406 40.214844 1.734375 40.445312 C 2.386719 43.953125 4.613281 47.285156 8.152344 48.367188 C 8.996094 48.625 9.871094 48.75 10.746094 48.777344 C 11.855469 48.8125 12.96875 48.679688 14.046875 48.40625 Z M 36.28125 49.367188 C 36.210938 49.5 36.261719 49.660156 36.394531 49.730469 C 47.742188 55.667969 53.636719 58.679688 53.90625 58.679688 C 54.039062 58.679688 54.351562 58.679688 62.453125 50.730469 L 65.265625 52.839844 C 65.386719 52.929688 65.554688 52.90625 65.644531 52.785156 C 65.730469 52.667969 65.707031 52.5 65.589844 52.410156 L 65.367188 52.242188 C 65.25 52.238281 65.140625 52.152344 65.097656 52.042969 L 63.675781 50.976562 L 63.507812 50.851562 L 62.589844 50.164062 C 62.484375 50.082031 62.335938 50.09375 62.238281 50.1875 C 59.335938 53.039062 54.625 57.589844 53.882812 58.121094 C 53.875 58.117188 53.859375 58.109375 53.851562 58.105469 C 53.753906 58.125 53.640625 58.078125 53.585938 57.988281 C 52.691406 57.5625 50.355469 56.371094 47.503906 54.902344 C 46.9375 54.609375 46.351562 54.304688 45.75 53.996094 C 42.738281 52.4375 39.398438 50.695312 36.644531 49.253906 C 36.511719 49.183594 36.351562 49.238281 36.28125 49.367188 Z M 72.789062 57.582031 L 70.890625 55.484375 L 70.800781 55.386719 L 70.605469 55.167969 C 70.503906 55.058594 70.335938 55.050781 70.226562 55.148438 C 70.113281 55.25 70.105469 55.417969 70.207031 55.527344 L 75.21875 61.070312 C 68.820312 70.144531 59.28125 83.554688 58.222656 84.703125 C 56.011719 84.261719 26.316406 78.296875 26.003906 78.234375 C 25.859375 78.207031 25.71875 78.300781 25.6875 78.445312 C 25.660156 78.589844 25.753906 78.734375 25.898438 78.761719 C 26.09375 78.800781 37.734375 81.136719 46.992188 82.996094 C 53.0625 84.214844 58.109375 85.226562 58.242188 85.253906 C 58.265625 85.261719 58.285156 85.265625 58.308594 85.265625 C 58.507812 85.265625 58.8125 84.925781 61.355469 81.4375 C 62.804688 79.453125 64.792969 76.683594 67.277344 73.203125 C 71.5 67.273438 75.738281 61.261719 75.78125 61.203125 C 75.855469 61.097656 75.84375 60.960938 75.761719 60.867188 L 74.429688 59.394531 L 73.175781 58.011719 Z M 54.535156 23.640625 C 53.769531 24.234375 53.003906 24.824219 52.234375 25.414062 C 52.222656 25.425781 52.21875 25.4375 52.207031 25.449219 L 51.648438 22.511719 C 51.578125 22.144531 51.003906 22.226562 51.074219 22.59375 C 51.425781 24.4375 51.78125 26.277344 52.125 28.121094 C 52.269531 28.898438 52.429688 29.824219 51.839844 30.460938 C 51.382812 30.953125 50.644531 31.148438 50.011719 30.917969 C 49.664062 30.792969 49.445312 31.328125 49.796875 31.457031 C 50.5 31.710938 51.273438 31.597656 51.890625 31.175781 C 52.59375 30.695312 52.867188 29.90625 52.835938 29.082031 C 52.800781 28.144531 52.558594 27.191406 52.367188 26.265625 C 52.394531 26.277344 52.425781 26.289062 52.457031 26.292969 C 53.277344 26.3125 54.09375 26.335938 54.914062 26.359375 C 54.984375 26.359375 55.050781 26.339844 55.105469 26.304688 C 55.171875 26.261719 55.222656 26.195312 55.234375 26.105469 C 55.246094 26 55.1875 25.878906 55.09375 25.820312 C 55.058594 25.796875 55.019531 25.785156 54.980469 25.785156 C 54.246094 25.765625 53.515625 25.742188 52.785156 25.722656 C 53.410156 25.242188 54.039062 24.757812 54.664062 24.273438 C 54.703125 24.265625 54.734375 24.25 54.765625 24.222656 C 54.808594 24.179688 54.847656 24.140625 54.890625 24.101562 C 54.9375 24.058594 54.964844 24.003906 54.984375 23.949219 C 55.003906 23.878906 55 23.804688 54.964844 23.738281 C 54.957031 23.722656 54.953125 23.707031 54.941406 23.695312 C 54.847656 23.570312 54.660156 23.546875 54.535156 23.640625 Z M 49.390625 22.140625 C 48.457031 21.996094 47.523438 21.855469 46.59375 21.714844 C 46.136719 21.648438 45.679688 21.578125 45.222656 21.507812 C 44.796875 21.445312 44.363281 21.398438 43.9375 21.488281 C 43.574219 21.5625 43.652344 22.132812 44.019531 22.058594 C 44.453125 21.972656 44.878906 22.042969 45.3125 22.105469 C 45.75 22.171875 46.191406 22.242188 46.632812 22.304688 C 47.527344 22.441406 48.425781 22.578125 49.324219 22.714844 C 49.691406 22.769531 49.757812 22.195312 49.390625 22.140625 Z M 51.925781 22.382812 C 51.984375 22.523438 52.164062 22.605469 52.304688 22.539062 C 53.09375 22.152344 53.882812 21.765625 54.671875 21.378906 C 54.773438 21.328125 54.875 21.28125 54.972656 21.230469 C 55.113281 21.164062 55.191406 21 55.128906 20.851562 C 55.070312 20.714844 54.890625 20.628906 54.746094 20.699219 C 54.691406 20.726562 54.632812 20.753906 54.578125 20.78125 C 53.742188 21.191406 52.910156 21.597656 52.078125 22.003906 C 51.9375 22.074219 51.859375 22.234375 51.925781 22.382812 Z M 47.945312 26.289062 C 47.945312 25.753906 47.511719 25.320312 46.976562 25.320312 C 46.441406 25.320312 46.007812 25.753906 46.007812 26.289062 C 46.007812 26.820312 46.441406 27.253906 46.976562 27.253906 C 47.511719 27.253906 47.945312 26.820312 47.945312 26.289062 Z M 48.769531 36.75 C 46.972656 36.160156 45.328125 35.210938 43.917969 33.953125 C 43.640625 33.707031 43.289062 34.167969 43.566406 34.414062 C 45.011719 35.699219 46.714844 36.679688 48.550781 37.285156 C 48.902344 37.402344 49.125 36.867188 48.769531 36.75 Z M 58.40625 35.199219 L 60.96875 35.199219 L 60.96875 29.277344 L 58.40625 29.277344 Z M 58.40625 35.199219 " fill-opacity="1" fill-rule="nonzero"/></g><g clip-path="url(#id4)"><path fill="rgb(100%, 88.238525%, 73.728943%)" d="M 67.890625 36.601562 C 68.28125 36.527344 68.648438 36.375 68.964844 36.160156 L 68.964844 37.140625 C 68.964844 37.4375 68.722656 37.679688 68.425781 37.679688 C 68.132812 37.679688 67.890625 37.4375 67.890625 37.140625 Z M 69.863281 26.464844 C 70.101562 26.292969 70.15625 25.957031 69.984375 25.71875 C 69.808594 25.476562 69.472656 25.421875 69.234375 25.59375 C 69.183594 25.628906 68.230469 26.332031 67.960938 27.890625 C 68.335938 27.96875 68.683594 28.121094 68.988281 28.332031 C 69.113281 27.054688 69.820312 26.496094 69.863281 26.464844 Z M 63.71875 23 L 65.023438 23 L 65.023438 21.21875 L 63.71875 21.21875 Z M 77.460938 52.90625 L 77.601562 52.988281 C 77.667969 52.953125 77.738281 52.917969 77.808594 52.882812 C 77.839844 52.863281 77.871094 52.84375 77.90625 52.828125 C 77.875 52.835938 77.84375 52.84375 77.808594 52.851562 C 77.695312 52.875 77.578125 52.890625 77.460938 52.90625 Z M 68.460938 45.152344 C 68.492188 45.066406 68.523438 44.976562 68.554688 44.890625 C 69.449219 42.417969 70.175781 39.867188 70.988281 37.367188 C 71.175781 36.789062 71.371094 36.195312 71.765625 35.734375 C 72.160156 35.269531 72.808594 34.96875 73.386719 35.152344 C 74.304688 35.449219 74.476562 36.636719 74.789062 37.550781 C 75.335938 39.144531 76.734375 40.289062 78.324219 40.921875 C 78.71875 41.078125 79.125 41.203125 79.53125 41.296875 C 79.929688 41.386719 80.328125 41.449219 80.734375 41.496094 C 80.632812 41.675781 80.746094 41.972656 81.019531 41.941406 C 82.277344 41.808594 83.546875 41.765625 84.8125 41.828125 C 85.457031 41.859375 86.101562 41.914062 86.738281 42 C 87.089844 42.046875 88.199219 42.304688 87.730469 42.882812 C 87.582031 43.066406 87.320312 43.152344 87.105469 43.242188 C 86.808594 43.375 86.507812 43.503906 86.210938 43.632812 C 85.632812 43.882812 85.054688 44.136719 84.480469 44.386719 C 83.304688 44.898438 82.128906 45.40625 80.953125 45.917969 C 80.609375 46.066406 80.835938 46.601562 81.179688 46.453125 L 84.449219 45.03125 C 84.496094 45.011719 84.542969 44.992188 84.589844 44.96875 C 83.820312 46.160156 83.445312 47.636719 82.386719 48.609375 C 81.117188 49.773438 79.320312 49.398438 77.804688 49.042969 C 77.441406 48.960938 77.378906 49.535156 77.738281 49.621094 C 78.960938 49.90625 80.332031 50.164062 81.53125 49.769531 C 80.902344 50.574219 80.175781 51.308594 79.183594 51.625 C 78.515625 51.835938 77.824219 51.804688 77.199219 51.476562 C 76.609375 51.164062 76.070312 50.820312 75.386719 51.054688 C 75.035156 51.171875 75.261719 51.703125 75.613281 51.585938 C 76 51.453125 76.386719 51.679688 76.714844 51.863281 C 77.015625 52.03125 77.304688 52.179688 77.636719 52.261719 C 77.660156 52.269531 77.683594 52.269531 77.707031 52.277344 C 77.628906 52.292969 77.550781 52.3125 77.46875 52.324219 C 77.214844 52.363281 76.957031 52.398438 76.726562 52.480469 L 67.507812 47.117188 C 67.8125 46.453125 68.222656 45.800781 68.460938 45.152344 Z M 77.242188 43.246094 C 77.214844 42.875 76.640625 42.960938 76.671875 43.332031 C 76.851562 45.648438 76.347656 47.96875 75.253906 50.019531 C 75.078125 50.347656 75.617188 50.5625 75.789062 50.234375 C 76.933594 48.097656 77.429688 45.664062 77.242188 43.246094 Z M 8.703125 26 C 8.703125 25.910156 8.703125 25.820312 8.707031 25.726562 C 8.835938 23.28125 10.464844 20.933594 12.609375 19.90625 C 15.113281 18.707031 18.121094 18.945312 20.699219 19.964844 C 21.667969 20.34375 22.585938 20.824219 23.46875 21.371094 C 24.945312 22.277344 26.320312 23.363281 27.660156 24.464844 C 29.414062 25.90625 31.132812 27.390625 32.820312 28.914062 C 35.519531 31.355469 38.125 33.894531 40.632812 36.53125 C 42.671875 38.671875 44.640625 40.871094 46.542969 43.132812 C 46.640625 43.246094 46.742188 43.363281 46.84375 43.488281 C 48.207031 45.066406 50.183594 47.296875 48.570312 49.28125 C 48.023438 49.957031 47.277344 50.164062 46.425781 50.0625 C 43.480469 49.71875 39.296875 45.664062 37.800781 44.574219 C 36.410156 43.558594 35.164062 43.421875 33.652344 42.808594 C 32.535156 42.351562 31.410156 41.339844 30.582031 40.492188 C 29.074219 38.941406 28.019531 36.96875 26.339844 35.605469 C 24.566406 34.167969 22.269531 33.554688 20.027344 33.132812 C 17.78125 32.710938 15.476562 32.429688 13.382812 31.515625 C 11.304688 30.605469 8.761719 28.460938 8.703125 26 Z M 38.710938 39.757812 C 38.847656 39.679688 38.929688 39.539062 38.867188 39.378906 C 38.8125 39.25 38.621094 39.148438 38.484375 39.226562 C 37.984375 39.519531 37.398438 39.839844 36.796875 39.695312 C 36.355469 39.585938 35.957031 39.070312 36.304688 38.652344 C 36.503906 38.40625 36.214844 38.132812 35.960938 38.210938 C 35.367188 38.386719 34.679688 38.148438 34.320312 37.652344 C 33.9375 37.128906 33.972656 36.378906 34.351562 35.867188 C 34.574219 35.570312 34.113281 35.214844 33.890625 35.515625 C 33.355469 36.238281 33.324219 37.273438 33.859375 38.003906 C 34.269531 38.5625 34.9375 38.847656 35.609375 38.828125 C 35.539062 39.34375 35.847656 39.890625 36.332031 40.132812 C 37.128906 40.539062 38.007812 40.171875 38.710938 39.757812 Z M 12.425781 26.382812 C 12.878906 27.160156 13.886719 27.664062 14.753906 27.25 C 14.90625 27.175781 15.21875 26.882812 15.390625 26.921875 C 15.582031 26.964844 15.542969 27.320312 15.566406 27.46875 C 15.636719 27.882812 15.867188 28.207031 16.234375 28.414062 C 17.160156 28.929688 18.117188 28.390625 18.902344 27.875 C 19.210938 27.671875 18.855469 27.214844 18.546875 27.417969 C 18.152344 27.675781 17.738281 27.953125 17.265625 28.03125 C 16.90625 28.089844 16.449219 27.992188 16.238281 27.664062 C 16.046875 27.367188 16.164062 26.972656 15.96875 26.664062 C 15.78125 26.367188 15.433594 26.285156 15.109375 26.402344 C 14.726562 26.539062 14.457031 26.839844 14.019531 26.8125 C 13.589844 26.789062 13.210938 26.53125 12.976562 26.175781 C 12.402344 25.308594 12.640625 24.191406 12.832031 23.246094 C 12.90625 22.878906 12.332031 22.816406 12.257812 23.179688 C 12.042969 24.238281 11.851562 25.394531 12.425781 26.382812 Z M 68.085938 55.691406 C 67.96875 55.691406 67.867188 55.769531 67.832031 55.875 C 67.390625 56.570312 59.28125 64.542969 53.8125 69.851562 L 22.1875 56.109375 C 23.660156 54.335938 25.433594 52.796875 27.453125 51.582031 C 29.050781 50.621094 30.785156 49.882812 32.582031 49.378906 C 32.9375 49.28125 32.707031 48.746094 32.355469 48.847656 C 25.652344 50.730469 20.191406 55.886719 17.941406 62.464844 C 17.285156 64.375 16.902344 66.375 16.808594 68.394531 C 16.792969 68.765625 17.367188 68.835938 17.386719 68.460938 C 17.589844 64.082031 19.191406 59.910156 21.847656 56.535156 C 21.867188 56.546875 21.882812 56.566406 21.90625 56.574219 L 53.765625 70.417969 C 53.796875 70.433594 53.835938 70.4375 53.871094 70.4375 C 53.941406 70.4375 54.007812 70.414062 54.058594 70.363281 C 68.355469 56.484375 68.355469 56.105469 68.355469 55.960938 C 68.355469 55.8125 68.234375 55.691406 68.085938 55.691406 Z M 54.003906 57.976562 C 55.445312 53.828125 56.886719 49.679688 58.332031 45.53125 C 58.425781 45.261719 57.996094 45.097656 57.902344 45.367188 C 56.460938 49.515625 55.015625 53.664062 53.574219 57.808594 C 53.550781 57.878906 53.558594 57.9375 53.585938 57.984375 C 53.640625 58.074219 53.753906 58.125 53.851562 58.105469 C 53.914062 58.09375 53.972656 58.058594 54.003906 57.976562 Z M 65.367188 52.242188 C 65.445312 52.246094 65.527344 52.214844 65.589844 52.125 C 66.269531 51.109375 66.953125 50.09375 67.636719 49.078125 C 67.84375 48.769531 67.382812 48.417969 67.175781 48.726562 C 66.492188 49.742188 65.8125 50.757812 65.128906 51.773438 C 65.066406 51.863281 65.066406 51.960938 65.097656 52.039062 C 65.140625 52.152344 65.25 52.234375 65.367188 52.242188 Z M 73.246094 57.9375 C 74.183594 56.453125 75.117188 54.972656 76.054688 53.492188 C 76.082031 53.449219 76.097656 53.40625 76.101562 53.363281 C 76.035156 53.300781 76.003906 53.207031 76.015625 53.117188 C 75.902344 52.996094 75.707031 52.960938 75.59375 53.140625 C 74.660156 54.621094 73.722656 56.101562 72.789062 57.582031 L 73.175781 58.011719 C 73.203125 57.992188 73.226562 57.96875 73.246094 57.9375 Z M 71.285156 55.425781 C 71.796875 54.8125 72.3125 54.199219 72.824219 53.589844 C 72.921875 53.472656 72.894531 53.269531 72.769531 53.183594 C 72.636719 53.089844 72.46875 53.113281 72.363281 53.238281 C 71.851562 53.847656 71.339844 54.460938 70.824219 55.070312 C 70.753906 55.15625 70.75 55.289062 70.800781 55.386719 L 70.890625 55.484375 C 71.023438 55.566406 71.183594 55.546875 71.285156 55.425781 Z M 78.699219 31.042969 L 72 31.042969 C 71.851562 31.042969 71.730469 31.164062 71.730469 31.3125 C 71.730469 31.460938 71.851562 31.582031 72 31.582031 L 78.699219 31.582031 L 78.699219 33.183594 L 70.835938 33.183594 C 70.542969 33.183594 70.300781 33.425781 70.300781 33.722656 C 70.300781 34.019531 70.542969 34.257812 70.835938 34.257812 L 78.699219 34.257812 L 78.699219 40.035156 C 78.699219 40.332031 78.9375 40.570312 79.234375 40.570312 C 79.53125 40.570312 79.773438 40.332031 79.773438 40.035156 L 79.773438 29.460938 C 79.773438 27.386719 80.671875 26.507812 80.714844 26.464844 C 80.84375 26.351562 80.898438 26.191406 80.886719 26.03125 C 80.878906 25.917969 80.835938 25.804688 80.753906 25.710938 C 80.554688 25.492188 80.214844 25.472656 79.992188 25.671875 C 79.976562 25.6875 79.851562 25.804688 79.683594 26.03125 C 79.296875 26.554688 78.699219 27.65625 78.699219 29.460938 Z M 93.464844 31.042969 L 87.355469 31.042969 C 87.207031 31.042969 87.085938 31.164062 87.085938 31.3125 C 87.085938 31.460938 87.207031 31.582031 87.355469 31.582031 L 93.464844 31.582031 L 93.464844 33.3125 L 86.488281 33.3125 C 86.191406 33.3125 85.953125 33.550781 85.953125 33.847656 C 85.953125 34.144531 86.191406 34.386719 86.488281 34.386719 L 93.464844 34.386719 L 93.464844 40.894531 C 93.464844 41.191406 93.707031 41.433594 94.003906 41.433594 C 94.300781 41.433594 94.542969 41.191406 94.542969 40.894531 L 94.542969 29.015625 C 94.542969 26.644531 95.484375 25.609375 95.507812 25.582031 C 95.609375 25.480469 95.660156 25.34375 95.660156 25.210938 C 95.660156 25.070312 95.605469 24.933594 95.5 24.828125 C 95.289062 24.617188 94.949219 24.621094 94.738281 24.832031 C 94.722656 24.847656 94.605469 24.972656 94.445312 25.210938 C 94.070312 25.777344 93.464844 27 93.464844 29.015625 Z M 115.835938 23.652344 C 114.253906 28.289062 113.757812 33.273438 114.398438 38.132812 C 114.582031 39.53125 114.863281 40.914062 115.234375 42.273438 C 115.332031 42.628906 115.90625 42.546875 115.808594 42.1875 C 114.539062 37.53125 114.363281 32.609375 115.296875 27.871094 C 115.5625 26.515625 115.925781 25.179688 116.371094 23.867188 C 116.492188 23.515625 115.953125 23.296875 115.835938 23.652344 Z M 19.550781 92 L 33.09375 82.859375 C 33.285156 82.726562 33.496094 82.882812 33.523438 83.054688 C 33.59375 83.070312 33.65625 83.113281 33.699219 83.1875 C 34.460938 84.515625 35.222656 85.839844 35.988281 87.164062 C 36.050781 87.277344 36.019531 87.375 35.945312 87.441406 C 36.210938 88.859375 36.226562 90.328125 35.980469 91.75 C 35.558594 94.234375 34.390625 96.546875 32.605469 98.332031 C 30.898438 100.035156 28.710938 101.21875 26.34375 101.707031 C 26.003906 101.777344 25.929688 101.246094 26.269531 101.175781 C 27.546875 100.910156 28.785156 100.433594 29.90625 99.761719 C 31.914062 98.554688 33.554688 96.777344 34.535156 94.644531 C 35.539062 92.453125 35.851562 89.980469 35.429688 87.609375 C 30.84375 90.808594 26.257812 94.003906 21.675781 97.203125 C 21.65625 97.214844 21.636719 97.222656 21.613281 97.230469 C 21.589844 97.46875 21.210938 97.585938 21.105469 97.308594 C 20.5 95.765625 19.894531 94.21875 19.289062 92.671875 C 19.21875 92.492188 19.335938 92.355469 19.480469 92.316406 C 19.421875 92.214844 19.425781 92.085938 19.550781 92 Z M 19.785156 92.464844 C 20.335938 93.878906 20.890625 95.292969 21.445312 96.707031 L 35.117188 87.171875 C 35.199219 87.113281 35.28125 87.113281 35.355469 87.136719 C 34.644531 85.898438 33.929688 84.660156 33.21875 83.421875 C 28.773438 86.421875 24.328125 89.421875 19.882812 92.425781 C 19.847656 92.445312 19.816406 92.457031 19.785156 92.464844 Z M 19.785156 92.464844 " fill-opacity="1" fill-rule="nonzero"/></g><g fill="rgb(21.958923%, 22.349548%, 21.179199%)" fill-opacity="1"><g transform="translate(131.530622, 35.745777)"><g><path d="M -0.683594 3.207031 C 1.195312 3.207031 3.226562 1.785156 3.226562 -1.40625 L 3.226562 -11.3125 C 3.226562 -11.785156 2.867188 -12.148438 2.410156 -12.148438 C 1.9375 -12.148438 1.59375 -11.785156 1.59375 -11.3125 L 1.59375 -1.40625 C 1.59375 0.472656 0.796875 1.6875 -0.738281 1.746094 C -1.253906 1.804688 -1.460938 2.183594 -1.460938 2.484375 C -1.460938 2.902344 -1.15625 3.207031 -0.683594 3.207031 Z M -0.683594 3.207031 "/></g></g></g><g fill="rgb(21.958923%, 22.349548%, 21.179199%)" fill-opacity="1"><g transform="translate(137.147174, 35.745777)"><g><path d="M 9.128906 -8.84375 C 8.824219 -8.84375 8.484375 -8.617188 8.484375 -8.007812 L 8.484375 -7.058594 C 7.761719 -8.257812 6.625 -8.9375 5.085938 -8.9375 C 2.769531 -8.9375 0.722656 -7.003906 0.722656 -4.402344 C 0.722656 -1.839844 2.769531 0.132812 5.066406 0.132812 C 6.625 0.132812 7.761719 -0.570312 8.484375 -1.765625 L 8.484375 -0.757812 C 8.484375 -0.339844 8.636719 0 9.128906 0 C 9.546875 0 9.773438 -0.339844 9.773438 -0.757812 L 9.773438 -8.085938 C 9.773438 -8.503906 9.46875 -8.84375 9.128906 -8.84375 Z M 5.257812 -1.441406 C 3.605469 -1.441406 2.277344 -2.789062 2.277344 -4.402344 C 2.277344 -6.054688 3.605469 -7.382812 5.257812 -7.382812 C 6.910156 -7.382812 8.21875 -6.09375 8.21875 -4.402344 C 8.21875 -2.734375 6.910156 -1.441406 5.257812 -1.441406 Z M 5.257812 -1.441406 "/></g></g></g><g fill="rgb(21.958923%, 22.349548%, 21.179199%)" fill-opacity="1"><g transform="translate(148.911018, 35.745777)"><g><path d="M 8.425781 -2.203125 C 8.066406 -2.636719 7.574219 -2.429688 7.230469 -2.183594 C 6.679688 -1.671875 5.960938 -1.441406 5.257812 -1.441406 C 3.566406 -1.441406 2.371094 -2.828125 2.371094 -4.421875 C 2.371094 -6.054688 3.585938 -7.382812 5.257812 -7.382812 C 6.015625 -7.382812 6.679688 -7.15625 7.230469 -6.660156 C 7.574219 -6.414062 8.066406 -6.207031 8.425781 -6.644531 C 8.65625 -6.945312 8.710938 -7.421875 8.3125 -7.78125 C 7.554688 -8.523438 6.453125 -8.9375 5.277344 -8.9375 C 2.902344 -8.9375 0.722656 -7.136719 0.722656 -4.402344 C 0.722656 -1.785156 2.769531 0.132812 5.277344 0.132812 C 6.433594 0.132812 7.554688 -0.324219 8.3125 -1.0625 C 8.710938 -1.421875 8.671875 -1.898438 8.425781 -2.203125 Z M 8.425781 -2.203125 "/></g></g></g><g fill="rgb(21.958923%, 22.349548%, 21.179199%)" fill-opacity="1"><g transform="translate(159.23291, 35.745777)"><g><path d="M 2.125 0 C 2.5625 0 2.921875 -0.359375 2.921875 -0.816406 L 2.921875 -2.867188 L 3.984375 -3.851562 L 7.210938 -0.246094 C 7.515625 0.09375 8.027344 0.09375 8.351562 -0.207031 C 8.691406 -0.53125 8.671875 -1.0625 8.390625 -1.367188 L 5.105469 -4.933594 L 7.722656 -7.421875 C 8.046875 -7.722656 8.066406 -8.21875 7.761719 -8.539062 C 7.761719 -8.558594 7.742188 -8.558594 7.742188 -8.558594 C 7.421875 -8.882812 6.945312 -8.921875 6.625 -8.597656 L 2.921875 -5.011719 L 2.921875 -11.425781 C 2.921875 -11.882812 2.582031 -12.242188 2.125 -12.242188 C 1.671875 -12.242188 1.289062 -11.882812 1.289062 -11.425781 L 1.289062 -0.816406 C 1.289062 -0.359375 1.671875 0 2.125 0 Z M 2.125 0 "/></g></g></g><g fill="rgb(21.958923%, 22.349548%, 21.179199%)" fill-opacity="1"><g transform="translate(169.156364, 35.745777)"><g><path d="M 4.195312 0.152344 C 5.941406 0.152344 7.363281 -0.910156 7.363281 -2.484375 C 7.363281 -3.949219 6.167969 -4.613281 4.328125 -5.199219 C 3.285156 -5.542969 2.65625 -5.828125 2.65625 -6.527344 C 2.65625 -7.230469 3.285156 -7.402344 3.851562 -7.402344 C 4.554688 -7.402344 5.296875 -7.175781 5.75 -6.679688 C 6.035156 -6.511719 6.1875 -6.414062 6.511719 -6.414062 C 6.851562 -6.414062 7.15625 -6.777344 7.15625 -7.15625 C 7.15625 -7.421875 7.023438 -7.707031 6.832031 -7.859375 C 6.09375 -8.617188 5.144531 -8.9375 4.042969 -8.9375 C 2.390625 -8.9375 1.007812 -8.125 1.007812 -6.625 C 1.007812 -5.046875 2.296875 -4.367188 3.566406 -3.964844 C 5.066406 -3.511719 5.730469 -3.1875 5.730469 -2.484375 C 5.730469 -1.839844 5.125 -1.386719 4.269531 -1.386719 C 3.339844 -1.386719 2.675781 -1.632812 2.203125 -2.144531 C 1.972656 -2.296875 1.6875 -2.46875 1.386719 -2.46875 C 0.988281 -2.46875 0.722656 -2.125 0.722656 -1.785156 C 0.722656 -1.59375 0.757812 -1.367188 0.988281 -1.121094 C 1.554688 -0.398438 2.675781 0.152344 4.195312 0.152344 Z M 4.195312 0.152344 "/></g></g></g><g fill="rgb(21.958923%, 22.349548%, 21.179199%)" fill-opacity="1"><g transform="translate(178.131162, 35.745777)"><g><path d="M 5.257812 0.132812 C 7.742188 0.132812 9.773438 -1.917969 9.773438 -4.402344 C 9.773438 -6.925781 7.742188 -8.9375 5.257812 -8.9375 C 2.769531 -8.9375 0.722656 -6.925781 0.722656 -4.402344 C 0.722656 -1.917969 2.769531 0.132812 5.257812 0.132812 Z M 5.257812 -1.441406 C 3.605469 -1.441406 2.277344 -2.789062 2.277344 -4.402344 C 2.277344 -6.054688 3.605469 -7.382812 5.257812 -7.382812 C 6.910156 -7.382812 8.21875 -6.054688 8.21875 -4.402344 C 8.21875 -2.789062 6.910156 -1.441406 5.257812 -1.441406 Z M 5.257812 -1.441406 "/></g></g></g><g fill="rgb(21.958923%, 22.349548%, 21.179199%)" fill-opacity="1"><g transform="translate(189.515543, 35.745777)"><g><path d="M 5.617188 -8.9375 C 4.402344 -8.9375 3.246094 -8.371094 2.523438 -7.308594 L 2.523438 -8.046875 C 2.523438 -8.65625 2.183594 -8.863281 1.878906 -8.863281 C 1.554688 -8.863281 1.253906 -8.539062 1.253906 -8.125 L 1.253906 -0.796875 C 1.253906 -0.339844 1.632812 0.0195312 2.085938 0.0195312 C 2.523438 0.0195312 2.886719 -0.339844 2.886719 -0.796875 L 2.886719 -4.6875 C 2.886719 -6.207031 4.003906 -7.382812 5.503906 -7.382812 C 7.058594 -7.382812 8.046875 -6.148438 8.046875 -4.667969 L 8.046875 -0.796875 C 8.046875 -0.339844 8.425781 0.0195312 8.882812 0.0195312 C 9.335938 0.0195312 9.679688 -0.339844 9.679688 -0.796875 L 9.679688 -4.59375 C 9.679688 -7.003906 8.027344 -8.9375 5.617188 -8.9375 Z M 5.617188 -8.9375 "/></g></g></g><g fill="rgb(45.098877%, 45.098877%, 45.098877%)" fill-opacity="1"><g transform="translate(123.769658, 44.879416)"><g><path d="M 0.59375 0 L 0.59375 -5 L 2.625 -5 C 3.644531 -5 4.15625 -4.550781 4.15625 -3.65625 C 4.15625 -2.6875 3.457031 -2.09375 2.0625 -1.875 L 1.921875 -2.421875 C 2.953125 -2.578125 3.46875 -2.976562 3.46875 -3.625 C 3.46875 -4.1875 3.164062 -4.46875 2.5625 -4.46875 L 1.234375 -4.46875 L 1.234375 0 Z M 0.59375 0 "/></g></g></g><g fill="rgb(45.098877%, 45.098877%, 45.098877%)" fill-opacity="1"><g transform="translate(131.161405, 44.879416)"><g><path d="M 0.59375 0 L 0.59375 -5 L 1.234375 -5 L 1.234375 -2.796875 L 4.1875 -2.796875 L 4.1875 -5 L 4.84375 -5 L 4.84375 0 L 4.1875 0 L 4.1875 -2.265625 L 1.234375 -2.265625 L 1.234375 0 Z M 0.59375 0 "/></g></g></g><g fill="rgb(45.098877%, 45.098877%, 45.098877%)" fill-opacity="1"><g transform="translate(139.572696, 44.879416)"><g><path d="M 1.09375 -2.515625 C 1.09375 -1.160156 1.703125 -0.484375 2.921875 -0.484375 C 4.117188 -0.484375 4.71875 -1.160156 4.71875 -2.515625 C 4.71875 -3.835938 4.117188 -4.5 2.921875 -4.5 C 1.703125 -4.5 1.09375 -3.835938 1.09375 -2.515625 Z M 0.421875 -2.484375 C 0.421875 -4.179688 1.253906 -5.03125 2.921875 -5.03125 C 4.578125 -5.03125 5.40625 -4.179688 5.40625 -2.484375 C 5.40625 -0.804688 4.578125 0.03125 2.921875 0.03125 C 1.253906 0.03125 0.421875 -0.804688 0.421875 -2.484375 Z M 0.421875 -2.484375 "/></g></g></g><g fill="rgb(45.098877%, 45.098877%, 45.098877%)" fill-opacity="1"><g transform="translate(148.368063, 44.879416)"><g><path d="M 3.96875 -5 L 3.96875 -4.46875 L 2.390625 -4.46875 L 2.390625 0 L 1.75 0 L 1.75 -4.46875 L 0.171875 -4.46875 L 0.171875 -5 Z M 3.96875 -5 "/></g></g></g><g fill="rgb(45.098877%, 45.098877%, 45.098877%)" fill-opacity="1"><g transform="translate(155.487466, 44.879416)"><g><path d="M 1.09375 -2.515625 C 1.09375 -1.160156 1.703125 -0.484375 2.921875 -0.484375 C 4.117188 -0.484375 4.71875 -1.160156 4.71875 -2.515625 C 4.71875 -3.835938 4.117188 -4.5 2.921875 -4.5 C 1.703125 -4.5 1.09375 -3.835938 1.09375 -2.515625 Z M 0.421875 -2.484375 C 0.421875 -4.179688 1.253906 -5.03125 2.921875 -5.03125 C 4.578125 -5.03125 5.40625 -4.179688 5.40625 -2.484375 C 5.40625 -0.804688 4.578125 0.03125 2.921875 0.03125 C 1.253906 0.03125 0.421875 -0.804688 0.421875 -2.484375 Z M 0.421875 -2.484375 "/></g></g></g><g fill="rgb(45.098877%, 45.098877%, 45.098877%)" fill-opacity="1"><g transform="translate(164.28283, 44.879416)"><g><path d="M 4.375 -0.203125 C 3.96875 -0.046875 3.53125 0.03125 3.0625 0.03125 C 1.25 0.03125 0.34375 -0.832031 0.34375 -2.5625 C 0.34375 -4.207031 1.21875 -5.03125 2.96875 -5.03125 C 3.46875 -5.03125 3.9375 -4.960938 4.375 -4.828125 L 4.375 -4.265625 C 3.9375 -4.421875 3.492188 -4.5 3.046875 -4.5 C 1.679688 -4.5 1 -3.851562 1 -2.5625 C 1 -1.175781 1.671875 -0.484375 3.015625 -0.484375 C 3.222656 -0.484375 3.457031 -0.515625 3.71875 -0.578125 L 3.71875 -2.265625 L 4.375 -2.265625 Z M 4.375 -0.203125 "/></g></g></g><g fill="rgb(45.098877%, 45.098877%, 45.098877%)" fill-opacity="1"><g transform="translate(172.100551, 44.879416)"><g><path d="M 0.59375 0 L 0.59375 -5 L 2.71875 -5 C 3.675781 -5 4.15625 -4.597656 4.15625 -3.796875 C 4.15625 -3.148438 3.6875 -2.671875 2.75 -2.359375 L 4.46875 0 L 3.625 0 L 2.03125 -2.25 L 2.03125 -2.671875 C 2.988281 -2.816406 3.46875 -3.179688 3.46875 -3.765625 C 3.46875 -4.234375 3.203125 -4.46875 2.671875 -4.46875 L 1.234375 -4.46875 L 1.234375 0 Z M 0.59375 0 "/></g></g></g><g fill="rgb(45.098877%, 45.098877%, 45.098877%)" fill-opacity="1"><g transform="translate(179.638944, 44.879416)"><g><path d="M 0.765625 0 L 0.09375 0 L 2.203125 -5 L 2.921875 -5 L 5.0625 0 L 4.34375 0 L 3.6875 -1.578125 L 2.046875 -1.578125 L 2.21875 -2.09375 L 3.484375 -2.09375 L 2.546875 -4.359375 Z M 0.765625 0 "/></g></g></g><g fill="rgb(45.098877%, 45.098877%, 45.098877%)" fill-opacity="1"><g transform="translate(187.760432, 44.879416)"><g><path d="M 0.59375 0 L 0.59375 -5 L 2.625 -5 C 3.644531 -5 4.15625 -4.550781 4.15625 -3.65625 C 4.15625 -2.6875 3.457031 -2.09375 2.0625 -1.875 L 1.921875 -2.421875 C 2.953125 -2.578125 3.46875 -2.976562 3.46875 -3.625 C 3.46875 -4.1875 3.164062 -4.46875 2.5625 -4.46875 L 1.234375 -4.46875 L 1.234375 0 Z M 0.59375 0 "/></g></g></g><g fill="rgb(45.098877%, 45.098877%, 45.098877%)" fill-opacity="1"><g transform="translate(195.152178, 44.879416)"><g><path d="M 0.59375 0 L 0.59375 -5 L 1.234375 -5 L 1.234375 -2.796875 L 4.1875 -2.796875 L 4.1875 -5 L 4.84375 -5 L 4.84375 0 L 4.1875 0 L 4.1875 -2.265625 L 1.234375 -2.265625 L 1.234375 0 Z M 0.59375 0 "/></g></g></g><g fill="rgb(45.098877%, 45.098877%, 45.098877%)" fill-opacity="1"><g transform="translate(203.563473, 44.879416)"><g><path d="M 0.09375 -5 L 0.796875 -5 L 2.25 -2.390625 L 3.703125 -5 L 4.453125 -5 L 2.546875 -1.75 L 2.546875 0 L 1.90625 0 L 1.90625 -1.75 Z M 0.09375 -5 "/></g></g></g></svg>